<svg version="1.1" id="Layer_1" xmlns:x="ns_extend;" xmlns:i="ns_ai;" xmlns:graph="ns_graphs;" xmlns="http://www.w3.org/2000/svg" xmlns:xlink="http://www.w3.org/1999/xlink" x="0px" y="0px" viewBox="0 0 129 85" style="enable-background:new 0 0 129 85;" xml:space="preserve">
 <style type="text/css">
  .st0{fill-rule:evenodd;clip-rule:evenodd;}
	.st1{fill-rule:evenodd;clip-rule:evenodd;fill:#FFFFFF;}
 </style>
 <metadata>
  <sfw xmlns="ns_sfw;">
   <slices>
   </slices>
   <sliceSourceBounds bottomLeftOrigin="true" height="85" width="129" x="0" y="0.5">
   </sliceSourceBounds>
  </sfw>
 </metadata>
 <g id="Navigation-_x26_-Sitemap">
  <g id="D_Navigation_v2---R6" transform="translate(-100.000000, -907.000000)">
   <g id="Group-10-Copy-8" transform="translate(50.000000, 873.500000)">
    <g id="Group-4" transform="translate(0.000000, 34.000000)">
     <g id="gibson" transform="translate(50.000000, 0.000000)">
      <rect id="bg" y="-0.5" class="st0" width="129" height="85">
      </rect>
      <path id="Combined-Shape" class="st1" d="M96.4,24c1,0,1.1,1,1.1,1l0,0v22c0,1.1,1.1,1.1,1.2,1.1c1.1-0.1,1.1-1.1,1.1-1.1v-1.5
						l1.2-0.4v1.6c0,4.2-4.9,4.2-4.9,4.2c-1.7,0-2.3-1.5-2.3-2.1l0,0l0-18c0-0.1,0-0.9-1.2-0.9c-1.2,0-1.1,1-1.1,1v8.7L88,40.9
						c0.1-1.7-0.8-1.8-1.1-1.8l-0.1,0c0,0,0,0,0,0c-0.8,0-1.3,1-1.3,1c-1,1.8-3.5,2.7-4.1,3l-0.1,0c0,0,0,0,0,0l0,0l-2.5,0.8
						c-0.8,0.2-1.6,0.3-1.6,0.3c-2.3,0.1-3.4-2.3-3.4-3.1l0,0v-3.6c0-1.7-1.5-1.3-1.5-1.3s-0.5,0-1.6,0.9c-0.4,0.4-0.8,0.3-0.8,0.3
						l-0.1,0c-0.4-0.2-0.9-0.9-1-1c-0.7-0.9-1.2-1-1.3-1l0,0c-0.7,0-1.2,0.6-1.2,0.6c-0.6,0.7-0.4,1.4,0,1.8c0,0,4.2,3.1,4.3,3.2
						c1,0.8,1.1,2,1.1,2.7c0,2.2-1.9,3-2.6,3.3c-0.2,0.1-1.7,0.6-3.2,1.1l-0.5,0.2c-1.4,0.4-2.7,0.8-2.7,0.8c0.4-1.8-1-1.9-1.1-1.9
						c-0.5,0-1,0.6-1,0.6c-1.5,2.2-3.9,3.2-4,3.3c-0.5,0.3-6.9,2.2-6.9,2.2c0.2-1.7-0.9-1.8-1.1-1.8l0,0c-0.6,0-0.8,0.2-0.8,0.3
						c-0.1,0.1-1.4,2.3-1.4,2.4c-0.7,1.3-1.6,0.9-1.6,0.9s-0.7-0.2-1.4-1.2c-0.8-1-1.6-0.5-1.7-0.4c-1.8,1.4-2.3,4.9-2.3,5.7l0,0
						v10.4l-4.1,1.3V59.1c0-1.9-1.4-1.4-1.6-1.4c-0.2,0.1-2.7,1.5-2.7,1.5c-1,0.6-1.7,0.6-1.7,0.6c-2.2,0-2.3-2.1-2.3-2.1l0,0
						l0-20.9c0-3.2,2.9-4.4,3.2-4.5c0.2-0.1,5.8-1.8,7.2-2.2c1.3-0.4,3.1,1.2,3.1,3l0,0v5.2l-4.5,1.4v-4.5c0-1.4-1.3-1.5-1.6-1.4
						c-0.3,0.1-1.9,0.7-1.9,0.7c-1.5,0.7-1.7,2.7-1.7,2.7v17.7c0,1.2,1,1.2,1,1.2c4.2,0,4-6.3,4.1-7.8c0-0.1,0-1,0-2.1l0-0.5
						c0-0.9,0-1.8,0-2l0-0.1l3.6-1.3l0,8c0,1.1,0.5,1.4,0.7,1.4c1.9,0.1,2.4-6.5,2.4-7l0,0v-3.3l3.7-1.2v8.1c0.1,1.3,1.6,1.3,2,0.7
						c1.4-2,1.7-7.1,1.7-7.1l0,0l0-15.8l3.7-1.5l0,0l0,0.2c0,0,0,0.1,0,0.1l0,0.2c0,0.1,0,0.3,0,0.5l0,0.4c0,1.8,0,5,0,8.4l0,0.8
						c0,0.1,0,0.3,0,0.4l0,0.8l0,0l0,0.8c0,2.8,0,5.5,0,7.5l0,0.5c0,0.1,0,0.2,0,0.3l0,1.9c0,0,0,0.1,0,0.1l0,0.2c0,0,0,0.1,0,0.1
						c0,0.2,0.3,1.7,1.8,1.7c1.8,0,1.8-1.6,1.8-1.8l0-7.3c0-1.5-1.1-1.3-1.1-1.3l0,0V37c0.9-0.4,1.8-0.5,1.8-0.5
						c1.7-0.1,2.1,2,2.1,2.3l0,0v4.8c0,1.5,1.2,1.2,1.4,1.2c0.1,0,0.5-0.2,0.9-0.3l0.3-0.1c0.5-0.2,1-0.3,1-0.3
						C64.7,43.7,65,45,65,45c0.4,1,1,1,1.2,1c1,0,1.5-1,1.6-1.2c0.4-0.9-0.4-1.4-0.4-1.4l0,0l-4.3-3.3c-1-0.7-1.1-2.2-1.1-2.5l0,0
						c0-2.5,2.4-3.3,2.4-3.3l0,0l6.2-2.1l0,0l0,0.3c0,0,0,0.1,0,0.1l0,0.6c0,0.1,0,0.1,0,0.1c0,0.8,0.9,0.9,1.1,0.9
						c0.3,0,0.7-0.2,0.9-0.4c1.6-2.9,5-3.9,5.4-4l0.1,0l0,0l0,0l0,1.8c-1.1,0.1-1.1,1-1.2,1.3l0,0.1l0,0l0,0v6.9
						c0,1.7,1.7,1.7,1.9,1.7c1.8-0.1,1.9-1.6,1.9-2V29l1.5-0.3c1.7-0.2,2.2,1.8,2.1,2.4l0,0l0,0.4c0,0,0,0.1,0,0.1V34
						c0,0.1,0,0.2,0,0.2l0,1.8c0,1.3,1.4,1.1,1.4,1.1c1.4,0,2.2-5.2,2.2-6.3l0,0v-4.2l3.7-1.2v1.1c0,1,1.2,0.9,1.2,0.9
						c1,0,1.2-1,2-2.3C95.3,24.1,96.1,24,96.4,24L96.4,24z M43.9,31.5c1,0,1.9,0.8,1.9,1.9c0,1-0.8,1.9-1.9,1.9
						c-1,0-1.9-0.8-1.9-1.9C42,32.3,42.8,31.5,43.9,31.5z">
      </path>
     </g>
    </g>
   </g>
  </g>
 </g>
</svg>