<svg width="300" height="400" viewBox="0 0 300 400" fill="none" xmlns="http://www.w3.org/2000/svg">
  <!-- Guitar body -->
  <ellipse cx="150" cy="250" rx="80" ry="120" fill="#8B4513" stroke="#654321" stroke-width="2"/>
  
  <!-- Sound hole -->
  <circle cx="150" cy="230" r="25" fill="#2D1810"/>
  <circle cx="150" cy="230" r="20" fill="none" stroke="#8B4513" stroke-width="1"/>
  
  <!-- Guitar neck -->
  <rect x="140" y="50" width="20" height="150" fill="#DEB887" stroke="#CD853F" stroke-width="1"/>
  
  <!-- Frets -->
  <line x1="140" y1="70" x2="160" y2="70" stroke="#C0C0C0" stroke-width="1"/>
  <line x1="140" y1="90" x2="160" y2="90" stroke="#C0C0C0" stroke-width="1"/>
  <line x1="140" y1="110" x2="160" y2="110" stroke="#C0C0C0" stroke-width="1"/>
  <line x1="140" y1="130" x2="160" y2="130" stroke="#C0C0C0" stroke-width="1"/>
  <line x1="140" y1="150" x2="160" y2="150" stroke="#C0C0C0" stroke-width="1"/>
  <line x1="140" y1="170" x2="160" y2="170" stroke="#C0C0C0" stroke-width="1"/>
  
  <!-- Strings -->
  <line x1="142" y1="50" x2="142" y2="200" stroke="#E5E5E5" stroke-width="0.8"/>
  <line x1="145" y1="50" x2="145" y2="200" stroke="#E5E5E5" stroke-width="0.8"/>
  <line x1="148" y1="50" x2="148" y2="200" stroke="#E5E5E5" stroke-width="0.8"/>
  <line x1="152" y1="50" x2="152" y2="200" stroke="#E5E5E5" stroke-width="0.8"/>
  <line x1="155" y1="50" x2="155" y2="200" stroke="#E5E5E5" stroke-width="0.8"/>
  <line x1="158" y1="50" x2="158" y2="200" stroke="#E5E5E5" stroke-width="0.8"/>
  
  <!-- Headstock -->
  <rect x="135" y="30" width="30" height="30" fill="#DEB887" stroke="#CD853F" stroke-width="1"/>
  
  <!-- Tuning pegs -->
  <circle cx="140" cy="35" r="3" fill="#C0C0C0"/>
  <circle cx="150" cy="35" r="3" fill="#C0C0C0"/>
  <circle cx="160" cy="35" r="3" fill="#C0C0C0"/>
  <circle cx="140" cy="45" r="3" fill="#C0C0C0"/>
  <circle cx="150" cy="45" r="3" fill="#C0C0C0"/>
  <circle cx="160" cy="45" r="3" fill="#C0C0C0"/>
  
  <!-- Bridge -->
  <rect x="135" y="340" width="30" height="8" fill="#654321"/>
  
  <!-- Guitar glow/highlight -->
  <ellipse cx="130" cy="200" rx="15" ry="40" fill="#FF6B35" opacity="0.3"/>
</svg>