<svg width="200" height="400" viewBox="0 0 200 400" fill="none" xmlns="http://www.w3.org/2000/svg">
  <rect width="200" height="400" rx="20" fill="#1a1a1a"/>
  <rect x="10" y="30" width="180" height="320" rx="15" fill="#ffffff"/>
  <rect x="20" y="50" width="160" height="60" rx="8" fill="#f3f4f6"/>
  <rect x="30" y="60" width="60" height="40" rx="6" fill="#FF6B35"/>
  <rect x="100" y="60" width="70" height="40" rx="6" fill="#e5e7eb"/>
  <rect x="20" y="120" width="160" height="80" rx="8" fill="#f9fafb"/>
  <circle cx="60" cy="140" r="12" fill="#FF6B35"/>
  <rect x="80" y="135" width="80" height="8" rx="4" fill="#e5e7eb"/>
  <rect x="80" y="150" width="60" height="6" rx="3" fill="#d1d5db"/>
  <circle cx="60" cy="170" r="12" fill="#9ca3af"/>
  <rect x="80" y="165" width="80" height="8" rx="4" fill="#e5e7eb"/>
  <rect x="80" y="180" width="60" height="6" rx="3" fill="#d1d5db"/>
  <rect x="20" y="220" width="160" height="100" rx="8" fill="#fef3f2"/>
  <text x="100" y="250" text-anchor="middle" font-family="Arial" font-size="12" fill="#FF6B35" font-weight="bold">VibeStrings</text>
  <text x="100" y="270" text-anchor="middle" font-family="Arial" font-size="8" fill="#6b7280">Guitar Collection</text>
  <rect x="30" y="280" width="50" height="30" rx="4" fill="#FF6B35"/>
  <rect x="90" y="280" width="50" height="30" rx="4" fill="#e5e7eb"/>
  <rect x="120" y="280" width="50" height="30" rx="4" fill="#e5e7eb"/>
</svg>